<svg width="600" height="600" viewBox="0 0 600 600" fill="none" xmlns="http://www.w3.org/2000/svg">
<path fill-rule="evenodd" clip-rule="evenodd" d="M177.087 52.0186C108.015 52.0186 52.0215 108.012 52.0215 177.084V370.848C52.0215 407.722 67.9802 440.87 93.3678 463.76L126.845 498.771C149.731 528.122 185.426 546.997 225.529 546.997H421.935C491.007 546.997 547.001 491.003 547.001 421.932V228.168C547.001 189.488 529.441 154.909 501.858 131.968L475.395 104.56C452.72 72.7567 415.528 52.0186 373.493 52.0186H177.087Z" fill="#1185FE"/>
<path d="M93.3678 463.76L94.3226 462.847L94.2888 462.812L94.2525 462.779L93.3678 463.76ZM126.845 498.771L127.887 497.958L127.846 497.906L127.8 497.858L126.845 498.771ZM501.858 131.968L500.907 132.885L500.958 132.937L501.013 132.983L501.858 131.968ZM475.395 104.56L474.32 105.327L474.377 105.407L474.445 105.478L475.395 104.56ZM53.3426 177.084C53.3426 108.742 108.745 53.3397 177.087 53.3397V50.6974C107.286 50.6974 50.7004 107.283 50.7004 177.084H53.3426ZM53.3426 370.848V177.084H50.7004V370.848H53.3426ZM94.2525 462.779C69.131 440.129 53.3426 407.333 53.3426 370.848H50.7004C50.7004 408.112 66.8294 441.611 92.4831 464.741L94.2525 462.779ZM127.8 497.858L94.3226 462.847L92.413 464.673L125.89 499.684L127.8 497.858ZM225.529 545.676C185.85 545.676 150.534 527.002 127.887 497.958L125.803 499.583C148.929 529.242 185.002 548.318 225.529 548.318V545.676ZM421.935 545.676H225.529V548.318H421.935V545.676ZM545.679 421.932C545.679 490.274 490.277 545.676 421.935 545.676V548.318C491.736 548.318 548.322 491.733 548.322 421.932H545.679ZM545.679 228.168V421.932H548.322V228.168H545.679ZM501.013 132.983C528.307 155.684 545.679 189.897 545.679 228.168H548.322C548.322 189.079 530.574 154.133 502.703 130.952L501.013 132.983ZM474.445 105.478L500.907 132.885L502.808 131.05L476.346 103.642L474.445 105.478ZM373.493 53.3397C415.083 53.3397 451.882 73.8565 474.32 105.327L476.471 103.793C453.559 71.657 415.973 50.6974 373.493 50.6974V53.3397ZM177.087 53.3397H373.493V50.6974H177.087V53.3397Z" fill="black"/>
<rect x="151.983" y="153.744" width="337.325" height="334.682" rx="69.1384" fill="white" stroke="black" stroke-width="2.64223"/>
<path d="M362.863 342.644L362.642 343.947C384.894 347.735 398.395 355.839 403.471 365.69C408.465 375.381 405.575 387.394 393.471 399.816C381.905 411.687 372.142 416.691 364.012 417.526C355.934 418.355 349.202 415.094 343.596 409.817C337.967 404.518 333.549 397.246 330.199 390.278C326.856 383.323 324.62 376.762 323.312 372.923L323.283 372.838C322.828 371.501 322.464 370.434 322.21 369.844C322.145 369.692 322.066 369.521 321.975 369.371C321.931 369.299 321.858 369.185 321.752 369.071C321.681 368.995 321.414 368.714 320.96 368.636C320.85 368.617 320.746 368.612 320.647 368.617C320.548 368.612 320.443 368.617 320.334 368.636C319.879 368.714 319.612 368.995 319.541 369.071C319.435 369.185 319.362 369.299 319.318 369.371C319.227 369.521 319.148 369.692 319.083 369.844C318.829 370.433 318.466 371.501 318.011 372.837L317.981 372.923C316.674 376.762 314.438 383.323 311.095 390.278C307.746 397.246 303.328 404.518 297.699 409.817C292.094 415.095 285.361 418.356 277.283 417.526C269.152 416.691 259.389 411.688 247.822 399.816C235.719 387.394 232.828 375.381 237.822 365.689C242.898 355.839 256.399 347.734 278.652 343.947L362.863 342.644ZM362.863 342.644L363.085 341.342C375.71 343.491 389.041 342.774 400.136 338.11C411.187 333.465 420.051 324.901 423.881 311.21C424.415 309.302 425.074 304.767 425.761 298.798C426.441 292.877 427.138 285.665 427.764 278.488C429.018 264.101 429.98 249.97 429.98 246.66C429.98 238.362 428.158 233.046 425.381 229.833C422.636 226.659 418.778 225.333 414.201 225.402C404.922 225.542 393.21 231.431 384.124 238.254L383.44 237.343L384.124 238.254C371.573 247.677 358.492 261.993 347.279 276.579C336.07 291.162 326.797 305.924 321.837 316.185L320.647 318.645L319.458 316.184C314.498 305.923 305.225 291.161 294.015 276.579C282.899 262.118 269.945 247.923 257.494 238.497L257.169 238.254C248.084 231.431 236.371 225.542 227.092 225.402C222.515 225.333 218.657 226.659 215.913 229.833C213.135 233.046 211.313 238.362 211.313 246.66C211.313 249.969 212.275 264.101 213.53 278.487C214.156 285.664 214.852 292.877 215.533 298.798C216.219 304.767 216.878 309.302 217.412 311.21L217.412 311.21C221.242 324.901 230.105 333.465 241.156 338.11C252.248 342.772 265.574 343.491 278.196 341.344M362.863 342.644L278.196 341.344M278.196 341.344C278.2 341.343 278.204 341.343 278.208 341.342L278.408 342.512L278.43 342.644L278.196 341.344ZM319.529 370.736C319.404 370.565 319.356 370.406 319.34 370.343L320.306 370.343C320.228 370.523 320.136 370.76 320.03 371.05C319.91 370.971 319.839 370.895 319.819 370.872L319.817 370.87C319.747 370.796 319.714 370.737 319.713 370.737C319.713 370.736 319.713 370.736 319.714 370.738C319.719 370.747 319.741 370.791 319.783 370.888C319.803 370.934 319.823 370.984 319.845 371.038C319.709 370.945 319.603 370.836 319.529 370.736ZM321.263 371.05C321.157 370.76 321.065 370.523 320.987 370.343L321.953 370.343C321.937 370.406 321.889 370.565 321.764 370.736C321.691 370.836 321.584 370.945 321.448 371.038C321.47 370.984 321.49 370.934 321.51 370.888C321.561 370.77 321.584 370.731 321.58 370.737L321.579 370.739C321.572 370.75 321.538 370.804 321.476 370.87L321.475 370.872C321.454 370.894 321.383 370.971 321.263 371.05Z" fill="#1185FE"/>
<path d="M362.863 342.644L362.642 343.947C384.894 347.735 398.395 355.839 403.471 365.69C408.465 375.381 405.575 387.394 393.471 399.816C381.905 411.687 372.142 416.691 364.012 417.526C355.934 418.355 349.202 415.094 343.596 409.817C337.967 404.518 333.549 397.246 330.199 390.278C326.856 383.323 324.62 376.762 323.312 372.923L323.283 372.838C322.828 371.501 322.464 370.434 322.21 369.844C322.145 369.692 322.066 369.521 321.975 369.371C321.931 369.299 321.858 369.185 321.752 369.071C321.681 368.995 321.414 368.714 320.96 368.636C320.85 368.617 320.746 368.612 320.647 368.617C320.548 368.612 320.443 368.617 320.334 368.636C319.879 368.714 319.612 368.995 319.541 369.071C319.435 369.185 319.362 369.299 319.318 369.371C319.227 369.521 319.148 369.692 319.083 369.844C318.829 370.433 318.466 371.501 318.011 372.837L317.981 372.923C316.674 376.762 314.438 383.323 311.095 390.278C307.746 397.246 303.328 404.518 297.699 409.817C292.094 415.095 285.361 418.356 277.283 417.526C269.152 416.691 259.389 411.688 247.822 399.816C235.719 387.394 232.828 375.381 237.822 365.689C242.898 355.839 256.399 347.734 278.652 343.947L362.863 342.644ZM362.863 342.644L363.085 341.342C375.71 343.491 389.041 342.774 400.136 338.11C411.187 333.465 420.051 324.901 423.881 311.21C424.415 309.302 425.074 304.767 425.761 298.798C426.441 292.877 427.138 285.665 427.764 278.488C429.018 264.101 429.98 249.97 429.98 246.66C429.98 238.362 428.158 233.046 425.381 229.833C422.636 226.659 418.778 225.333 414.201 225.402C404.922 225.542 393.21 231.431 384.124 238.254L383.44 237.343L384.124 238.254C371.573 247.677 358.492 261.993 347.279 276.579C336.07 291.162 326.797 305.924 321.837 316.185L320.647 318.645L319.458 316.184C314.498 305.923 305.225 291.161 294.015 276.579C282.899 262.118 269.945 247.923 257.494 238.497L257.169 238.254C248.084 231.431 236.371 225.542 227.092 225.402C222.515 225.333 218.657 226.659 215.913 229.833C213.135 233.046 211.313 238.362 211.313 246.66C211.313 249.969 212.275 264.101 213.53 278.487C214.156 285.664 214.852 292.877 215.533 298.798C216.219 304.767 216.878 309.302 217.412 311.21L217.412 311.21C221.242 324.901 230.105 333.465 241.156 338.11C252.248 342.772 265.574 343.491 278.196 341.344M362.863 342.644L278.196 341.344M278.196 341.344C278.2 341.343 278.204 341.343 278.208 341.342L278.408 342.512L278.43 342.644L278.196 341.344ZM319.529 370.736C319.404 370.565 319.356 370.406 319.34 370.343L320.306 370.343C320.228 370.523 320.136 370.76 320.03 371.05C319.91 370.971 319.839 370.895 319.819 370.872L319.817 370.87C319.747 370.796 319.714 370.737 319.713 370.737C319.713 370.736 319.713 370.736 319.714 370.738C319.719 370.747 319.741 370.791 319.783 370.888C319.803 370.934 319.823 370.984 319.845 371.038C319.709 370.945 319.603 370.836 319.529 370.736ZM321.263 371.05C321.157 370.76 321.065 370.523 320.987 370.343L321.953 370.343C321.937 370.406 321.889 370.565 321.764 370.736C321.691 370.836 321.584 370.945 321.448 371.038C321.47 370.984 321.49 370.934 321.51 370.888C321.561 370.77 321.584 370.731 321.58 370.737L321.579 370.739C321.572 370.75 321.538 370.804 321.476 370.87L321.475 370.872C321.454 370.894 321.383 370.971 321.263 371.05Z" stroke="#1185FE" stroke-width="2.64223"/>
<path d="M362.863 342.644L362.642 343.947C384.894 347.735 398.395 355.839 403.471 365.69C408.465 375.381 405.575 387.394 393.471 399.816C381.905 411.687 372.142 416.691 364.012 417.526C355.934 418.355 349.202 415.094 343.596 409.817C337.967 404.518 333.549 397.246 330.199 390.278C326.856 383.323 324.62 376.762 323.312 372.923L323.283 372.838C322.828 371.501 322.464 370.434 322.21 369.844C322.145 369.692 322.066 369.521 321.975 369.371C321.931 369.299 321.858 369.185 321.752 369.071C321.681 368.995 321.414 368.714 320.96 368.636C320.85 368.617 320.746 368.612 320.647 368.617C320.548 368.612 320.443 368.617 320.334 368.636C319.879 368.714 319.612 368.995 319.541 369.071C319.435 369.185 319.362 369.299 319.318 369.371C319.227 369.521 319.148 369.692 319.083 369.844C318.829 370.433 318.466 371.501 318.011 372.837L317.981 372.923C316.674 376.762 314.438 383.323 311.095 390.278C307.746 397.246 303.328 404.518 297.699 409.817C292.094 415.095 285.361 418.356 277.283 417.526C269.152 416.691 259.389 411.688 247.822 399.816C235.719 387.394 232.828 375.381 237.822 365.689C242.898 355.839 256.399 347.734 278.652 343.947L362.863 342.644ZM362.863 342.644L363.085 341.342C375.71 343.491 389.041 342.774 400.136 338.11C411.187 333.465 420.051 324.901 423.881 311.21C424.415 309.302 425.074 304.767 425.761 298.798C426.441 292.877 427.138 285.665 427.764 278.488C429.018 264.101 429.98 249.97 429.98 246.66C429.98 238.362 428.158 233.046 425.381 229.833C422.636 226.659 418.778 225.333 414.201 225.402C404.922 225.542 393.21 231.431 384.124 238.254L383.44 237.343L384.124 238.254C371.573 247.677 358.492 261.993 347.279 276.579C336.07 291.162 326.797 305.924 321.837 316.185L320.647 318.645L319.458 316.184C314.498 305.923 305.225 291.161 294.015 276.579C282.899 262.118 269.945 247.923 257.494 238.497L257.169 238.254C248.084 231.431 236.371 225.542 227.092 225.402C222.515 225.333 218.657 226.659 215.913 229.833C213.135 233.046 211.313 238.362 211.313 246.66C211.313 249.969 212.275 264.101 213.53 278.487C214.156 285.664 214.852 292.877 215.533 298.798C216.219 304.767 216.878 309.302 217.412 311.21L217.412 311.21C221.242 324.901 230.105 333.465 241.156 338.11C252.248 342.772 265.574 343.491 278.196 341.344M362.863 342.644L278.196 341.344M278.196 341.344C278.2 341.343 278.204 341.343 278.208 341.342L278.408 342.512L278.43 342.644L278.196 341.344ZM319.529 370.736C319.404 370.565 319.356 370.406 319.34 370.343L320.306 370.343C320.228 370.523 320.136 370.76 320.03 371.05C319.91 370.971 319.839 370.895 319.819 370.872L319.817 370.87C319.747 370.796 319.714 370.737 319.713 370.737C319.713 370.736 319.713 370.736 319.714 370.738C319.719 370.747 319.741 370.791 319.783 370.888C319.803 370.934 319.823 370.984 319.845 371.038C319.709 370.945 319.603 370.836 319.529 370.736ZM321.263 371.05C321.157 370.76 321.065 370.523 320.987 370.343L321.953 370.343C321.937 370.406 321.889 370.565 321.764 370.736C321.691 370.836 321.584 370.945 321.448 371.038C321.47 370.984 321.49 370.934 321.51 370.888C321.561 370.77 321.584 370.731 321.58 370.737L321.579 370.739C321.572 370.75 321.538 370.804 321.476 370.87L321.475 370.872C321.454 370.894 321.383 370.971 321.263 371.05Z" stroke="black" stroke-width="2.64223"/>
</svg>
